<svg baseProfile="full" xmlns="http://www.w3.org/2000/svg" height="28" width="25"><path fill="rgb( 255, 102, 0 )" d="M24.096 8.889l-.26.26c-.048.135-.12.262-.228.37l-7.089 7.089c-.392.392-1.027.392-1.418 0l-.709-.708c-.392-.392-.392-1.027 0-1.419l4.481-4.481h-16.873s-.704-.428-1-1c-.161-.311 0-.714 0-1 0-.676 1-1 1-1h17.379l-4.475-4.475c-.391-.39-.391-1.024 0-1.414l.707-.707c.39-.391 1.024-.391 1.414 0l7.071 7.071c.391.39.391 1.024 0 1.414zm-15.088 2.502l.718.708c.396.39.396 1.024 0 1.415l-4.542 4.478h17.638s1.015.325 1.015 1.001c0 .286.163.689 0 1.001-.3.572-1.015 1.001-1.015 1.001h-17.125l4.549 4.484c.397.392.397 1.028 0 1.42l-.72.709c-.397.392-1.042.392-1.439 0l-7.196-7.095c-.109-.108-.181-.235-.231-.37l-.264-.26c-.396-.391-.396-1.025 0-1.415l7.177-7.077c.396-.391 1.039-.391 1.435 0z"/></svg>