<svg baseProfile="full" xmlns="http://www.w3.org/2000/svg" height="13" width="19"><path fill="rgb( 255, 102, 0 )" d="M3.214 12.677c.223.216.514.323.806.323.295 0 .591-.111.815-.332.445-.44.441-1.148-.01-1.582l-.9-.869h9.259c1.553 0 3.014-.59 4.112-1.662 1.099-1.072 1.704-2.497 1.704-4.013v-.092c0-1.516-.605-2.941-1.704-4.013-.447-.437-1.173-.437-1.621 0-.448.437-.448 1.145 0 1.582.666.649 1.032 1.513 1.032 2.431v.092c0 1.896-1.581 3.438-3.523 3.438h-9.276l.932-.92c.445-.44.44-1.148-.01-1.582-.451-.435-1.177-.43-1.621.009l-2.876 2.84c-.214.211-.333.496-.331.793.002.296.124.58.341.789l2.871 2.768z"/></svg>