<svg baseProfile="full" xmlns="http://www.w3.org/2000/svg" height="21" width="37"><path fill="rgb( 255, 102, 0 )" d="M34.037 21v-4.229h-31.074v4.229h-2.963v-19.469c0-.388.145-.741.434-1.057.289-.316.638-.474 1.047-.474.41 0 .759.158 1.048.474.289.316.434.668.434 1.057v12.25h34.037v7.219h-2.963zm-27.75-8.823h-.217c-.798 0-1.445-.653-1.445-1.458v-.657c0-.648.421-1.198 1.001-1.387.094.123.197.242.311.357.654.66 1.453.994 2.375.994.916 0 3.311-.925 3.467-.601v-3.737c0-.389.133-.717.398-.985.265-.267.59-.401.975-.401h.145l21.463 2.115c.626.097 1.144.328 1.553.692.41.365.615.839.615 1.422v3.646h-30.641zm3.931-3.573h.006l-.185.145-.229.18-.235.126-.229.118-.302.09-.197.057c-.173.033-.351.05-.535.05-.185 0-.362-.017-.533-.05l-.198-.058-.294-.089-.228-.121-.225-.123-.225-.183-.174-.142h.005l-.043-.036c-.53-.535-.795-1.179-.795-1.933 0-.753.265-1.397.795-1.932.53-.535 1.168-.802 1.915-.802.746 0 1.397.267 1.951.802s.831 1.179.831 1.932c0 .754-.277 1.398-.831 1.933l-.045.036z"/></svg>