<svg baseProfile="full" xmlns="http://www.w3.org/2000/svg" height="21" width="21"><path fill="rgb( 255, 102, 0 )" d="M17.76 20.18h-14.52c-1.336 0-2.42-1.083-2.42-2.42v-12.1c0-1.336 1.084-2.42 2.42-2.42h.605v.302c0 1.001.814 1.816 1.815 1.816h.05c1.001 0 1.815-.815 1.815-1.816v-.302h5.698v.302c0 1.001.814 1.816 1.814 1.816h.051c1.001 0 1.815-.815 1.815-1.816v-.302h.857c1.336 0 2.42 1.084 2.42 2.42v12.1c0 1.337-1.084 2.42-2.42 2.42zm1.21-12.1h-16.94v9.68c0 .668.543 1.21 1.21 1.21h14.52c.668 0 1.21-.542 1.21-1.21v-9.68zm-3.63 9.352c-.821 0-1.487-.665-1.487-1.487 0-.821.666-1.487 1.487-1.487.821 0 1.487.666 1.487 1.487 0 .822-.666 1.487-1.487 1.487zm0-4.84c-.821 0-1.487-.666-1.487-1.487 0-.821.666-1.487 1.487-1.487.821 0 1.487.666 1.487 1.487 0 .821-.666 1.487-1.487 1.487zm-4.84 4.84c-.821 0-1.487-.665-1.487-1.487 0-.821.666-1.487 1.487-1.487.822 0 1.487.666 1.487 1.487 0 .822-.665 1.487-1.487 1.487zm0-4.84c-.821 0-1.487-.666-1.487-1.487 0-.821.666-1.487 1.487-1.487.822 0 1.487.666 1.487 1.487 0 .821-.665 1.487-1.487 1.487zm-4.84 4.84c-.821 0-1.487-.665-1.487-1.487 0-.821.666-1.487 1.487-1.487.822 0 1.487.666 1.487 1.487 0 .822-.665 1.487-1.487 1.487zm0-4.84c-.821 0-1.487-.666-1.487-1.487 0-.821.666-1.487 1.487-1.487.822 0 1.487.666 1.487 1.487 0 .821-.665 1.487-1.487 1.487zm9.428-8.142h-.051c-.501 0-.907-.406-.907-.908v-1.814c0-.502.406-.908.907-.908h.051c.501 0 .907.406.907.908v1.814c0 .502-.406.908-.907.908zm-9.378 0h-.05c-.501 0-.907-.406-.907-.908v-1.814c0-.502.406-.908.907-.908h.05c.502 0 .908.406.908.908v1.814c0 .502-.406.908-.908.908z"/></svg>