<svg xmlns="http://www.w3.org/2000/svg" viewBox="0 0 47.84 49.37" enable-background="new 0 0 47.84 49.37"><path fill="#f60" d="M37.171 49.37h-1.344c-1.618 0-2.935-1.317-2.935-2.935v-2.296h-18.11v2.296c0 1.618-1.317 2.935-2.935 2.935h-1.344c-1.618 0-2.935-1.317-2.935-2.935v-2.417c-2.735-.578-4.665-2.938-4.665-5.736v-5.24c0-1.732.776-3.371 2.069-4.458l-.269-.127c-.514.519-1.219.82-1.954.82-1.517 0-2.75-1.233-2.75-2.75s1.233-2.75 2.75-2.75c1.511 0 2.74 1.233 2.74 2.75 0 .143-.011.284-.033.422l.037.017v-3.372c0-4.841 3.938-8.779 8.779-8.779h2.12v-.87h-9.278c-.544 0-.987-.443-.987-.987s.443-.987.987-.987h2.198v-8.24h7.227v-3.731h17.353v6.059h5.698v5.912h.844c.545 0 .987.443.987.987s-.443.987-.987.987h-8.499v.87h1.662c4.841 0 8.779 3.938 8.779 8.779v2.554c.185-1.338 1.332-2.372 2.714-2.372 1.517 0 2.75 1.233 2.75 2.75s-1.233 2.75-2.75 2.75c-.735 0-1.439-.301-1.953-.82l-.246.116c1.314 1.092 2.076 2.708 2.076 4.47v5.24c0 2.897-2.059 5.301-4.861 5.768v2.385c0 1.618-1.317 2.935-2.935 2.935zm-2.305-5.231v2.296c0 .539.422.961.961.961h1.344c.539 0 .961-.422.961-.961v-2.296h-3.266zm-25.324 0v2.296c0 .539.422.961.961.961h1.344c.539 0 .961-.422.961-.961v-2.296h-3.266zm-.782-14.98c-.551 0-1.084.116-1.584.345-.32.137-.614.316-.862.523-.915.744-1.438 1.842-1.438 3.015v5.24c0 1.866 1.328 3.47 3.157 3.814l.099.029c.216.023.413.039.627.039h30.35l.326-.017.056-.02.061.001c1.961-.208 3.44-1.862 3.44-3.847v-5.24c0-1.173-.522-2.27-1.433-3.011-.268-.216-.564-.397-.855-.522-.497-.231-1.044-.35-1.595-.35h-30.349zm36.33-3.702c-.583 0-1.058.479-1.058 1.069 0 .589.475 1.068 1.058 1.068.589 0 1.068-.479 1.068-1.068 0-.59-.479-1.069-1.068-1.069zm-42.34 0c-.589 0-1.068.479-1.068 1.069 0 .589.479 1.068 1.068 1.068.584 0 1.059-.479 1.059-1.068 0-.59-.475-1.069-1.059-1.069zm6.01 1.728h30.35c.439 0 .871.048 1.292.145v-3.735c0-3.752-3.053-6.805-6.805-6.805h-6.255c.815.143 1.437.855 1.437 1.711 0 .952-.779 1.727-1.737 1.727h-6.487c-.958 0-1.737-.775-1.737-1.727 0-.856.622-1.568 1.437-1.711h-5.982c-3.752 0-6.805 3.053-6.805 6.805v3.733c.417-.095.849-.143 1.292-.143zm11.795-8.74l-.055.055 6.542.045v-.1h-6.487zm-2.188-3.63h11.594v-.87h-11.594v.87zm7.684-2.844h11.857v-4.23h-11.857v4.23zm-2.873 0h1.192v-5.912h7.84v-4.377h-13.989v2.049h4.957v8.24zm-12.184 0h10.502v-2.848h-1.727v.806c0 .464-.377.841-.841.841s-.841-.377-.841-.841v-.806h-4.279v.806c0 .464-.377.841-.841.841-.463 0-.84-.377-.84-.841v-.806h-1.133v2.848zm8.775-4.529h1.727v-2.029h-1.727v2.029zm-5.961 0h4.279v-2.029h-4.279v2.029zm-2.814 0h1.133v-2.029h-1.133v2.029zm26.082 31.89c-2.098 0-3.804-1.707-3.804-3.804 0-2.098 1.707-3.804 3.804-3.804 2.098 0 3.804 1.706 3.804 3.804 0 2.097-1.706 3.804-3.804 3.804zm-1.238-2.457c.326.3.761.483 1.238.483 1.009 0 1.83-.821 1.83-1.83 0-.675-.367-1.265-.912-1.582l.016.144c.012.458-.354.845-.814.859-.12.005-.74.084-.769 1.148-.01.363-.257.671-.589.778zm-25.632 2.457c-2.097 0-3.804-1.707-3.804-3.804 0-2.098 1.707-3.804 3.804-3.804 2.098 0 3.804 1.706 3.804 3.804 0 2.097-1.706 3.804-3.804 3.804zm-1.199-2.422c.321.279.741.449 1.199.449 1.009 0 1.83-.821 1.83-1.83 0-.579-.271-1.097-.692-1.432.008.456-.355.838-.814.853-.12.005-.741.084-.769 1.148-.012.427-.336.77-.754.812zm24.094 1.814h-18.654v-1.682h18.654v1.682zm0-1.983h-18.654v-1.682h18.654v1.682zm0-2.157h-18.654v-1.682h18.654v1.682zm-23.389-10.904h-.008c-.472-.012-.84-.396-.833-.855.005-.164.157-3.881 4.273-4.998l.221-.03c.376 0 .709.254.81.618.12.449-.144.911-.587 1.035-2.938.796-3.032 3.303-3.035 3.409-.012.453-.39.821-.841.821z"/></svg>