<?xml version="1.0" encoding="utf-8"?>
<!-- Generator: Adobe Illustrator 18.1.0, SVG Export Plug-In . SVG Version: 6.00 Build 0)  -->
<!DOCTYPE svg PUBLIC "-//W3C//DTD SVG 1.1//EN" "http://www.w3.org/Graphics/SVG/1.1/DTD/svg11.dtd">
<svg version="1.1" id="Слой_1" xmlns="http://www.w3.org/2000/svg" xmlns:xlink="http://www.w3.org/1999/xlink" x="0px" y="0px"
	 viewBox="0 0 47.8 49.4" enable-background="new 0 0 47.8 49.4" xml:space="preserve">
<g>
	<path fill="#DF6618" stroke="#DF6618" stroke-miterlimit="10" d="M32.6,34.1H14.9v-0.7h17.7V34.1z M32.6,35.6H14.9v0.7h17.7V35.6z
		 M32.6,37.5H14.9v0.7h17.7V37.5z M10.2,38.8c-1.8,0-3.3-1.5-3.3-3.3c0-1.8,1.5-3.3,3.3-3.3s3.3,1.5,3.3,3.3
		C13.5,37.4,12,38.8,10.2,38.8z M10.2,33.2c-1.3,0-2.3,1-2.3,2.3c0,1.3,1,2.3,2.3,2.3c1.3,0,2.3-1,2.3-2.3
		C12.5,34.2,11.5,33.2,10.2,33.2z M9.3,36.1c0-1.5,1.1-1.6,1.3-1.6l0,0c0.2,0,0.3-0.2,0.3-0.3c0-0.2-0.1-0.3-0.3-0.3
		c-0.6,0-1.9,0.5-1.9,2.3c0,0.2,0.1,0.3,0.3,0.4c0,0,0,0,0,0C9.1,36.4,9.3,36.3,9.3,36.1z M37.1,38.8c-1.8,0-3.3-1.5-3.3-3.3
		c0-1.8,1.5-3.3,3.3-3.3c1.8,0,3.3,1.5,3.3,3.3C40.4,37.4,38.9,38.8,37.1,38.8z M37.1,33.2c-1.3,0-2.3,1-2.3,2.3
		c0,1.3,1,2.3,2.3,2.3c1.3,0,2.3-1,2.3-2.3C39.4,34.2,38.4,33.2,37.1,33.2z M35.9,36.1c0-1.5,1.1-1.6,1.3-1.6l0,0
		c0.2,0,0.3-0.2,0.3-0.3c0-0.2-0.2-0.3-0.3-0.3c-0.6,0-1.9,0.5-1.9,2.3c0,0.2,0.1,0.3,0.3,0.4c0,0,0,0,0,0
		C35.8,36.4,35.9,36.3,35.9,36.1z M10.1,22.8c0-0.1,0.1-3,3.4-3.9c0.2,0,0.3-0.2,0.2-0.4c0-0.2-0.2-0.3-0.4-0.2
		c-3.8,1-3.9,4.5-3.9,4.5c0,0.2,0.1,0.3,0.3,0.3c0,0,0,0,0,0C9.9,23.2,10,23,10.1,22.8z M45.1,24.3c-1.2,0-2.2,1-2.2,2.3
		c0,0.2,0,0.5,0.1,0.7l-1.1,0.5v-4.1c0-4.6-3.7-8.3-8.3-8.3h-2.2v-1.8c0,0,0-0.1,0-0.1h9c0.3,0,0.5-0.2,0.5-0.5
		c0-0.3-0.2-0.5-0.5-0.5h-1.3V6.6h-5.7V0.5H17v3.7H9.8v8.2H7.1c-0.3,0-0.5,0.2-0.5,0.5c0,0.3,0.2,0.5,0.5,0.5h9.8c0,0,0,0,0,0.1v1.8
		h-2.6C9.7,15.3,6,19,6,23.6v4.2l-1.1-0.5C5,27,5,26.8,5,26.5c0-1.2-1-2.3-2.2-2.3c-1.2,0-2.2,1-2.2,2.3c0,1.2,1,2.2,2.2,2.2
		c0.8,0,1.4-0.4,1.8-0.9L6,28.5c0,0,0,0,0,0v0l0,0c-1.5,0.9-2.6,2.6-2.6,4.5v5.2c0,2.7,2,4.9,4.5,5.3c0,0,0.1,0,0.1,0v2.8
		c0,1.3,1.1,2.4,2.4,2.4h1.3c1.3,0,2.4-1.1,2.4-2.4v-2.8h19.1v2.8c0,1.3,1.1,2.4,2.4,2.4h1.3c1.3,0,2.4-1.1,2.4-2.4v-2.8
		c2.7-0.2,4.9-2.5,4.9-5.3V33c0-1.9-1-3.6-2.6-4.6l0,0v0c0,0,0,0,0,0l1.4-0.6c0.4,0.6,1.1,0.9,1.8,0.9c1.2,0,2.2-1,2.2-2.2
		C47.3,25.3,46.3,24.3,45.1,24.3z M2.7,28.1c-0.9,0-1.6-0.7-1.6-1.6c0-0.9,0.7-1.6,1.6-1.6c0.9,0,1.6,0.7,1.6,1.6
		C4.3,27.4,3.6,28.1,2.7,28.1z M38.4,7.2v5.2H25.6V7.2H38.4z M17.9,13.4h12.6c0,0,0,0,0,0.1v1.8H17.9L17.9,13.4
		C17.9,13.5,17.9,13.5,17.9,13.4z M19.3,4.9H22v3h-2.7V4.9z M17.7,1.2h15v5.4h-7.8v5.9h-2.2V4.2h-5V1.2z M13.3,4.9h5.3v3h-5.3V4.9z
		 M10.5,4.9h2.1v3h-2.1V4.9z M10.5,12.5V8.6h2.1v1.3c0,0.2,0.1,0.3,0.3,0.3c0.2,0,0.3-0.2,0.3-0.3V8.6h5.3v1.3
		c0,0.2,0.2,0.3,0.3,0.3c0.2,0,0.3-0.2,0.3-0.3V8.6H22v3.8H10.5z M7,23.6c0-4,3.3-7.3,7.3-7.3h9.2v1h-2.9c-0.7,0-1.2,0.6-1.2,1.2
		c0,0.7,0.6,1.2,1.2,1.2H27c0.7,0,1.2-0.5,1.2-1.2c0-0.7-0.6-1.2-1.2-1.2h-2.9v-1h9.5c4,0,7.3,3.3,7.3,7.3V27c0.1,0,0.2,0.1,0.2,0.1
		l-0.1,0c-0.1,0-0.1,0.1-0.2,0.2V28c-0.6-0.2-1.2-0.3-1.8-0.3H8.8c-0.6,0-1.2,0.1-1.8,0.3V23.6z M27,17.9c0.3,0,0.6,0.2,0.6,0.6
		c0,0.3-0.2,0.5-0.6,0.5h-6.5c-0.3,0-0.6-0.2-0.6-0.5c0-0.3,0.2-0.6,0.6-0.6H27z M13.3,46.4c0,0.8-0.7,1.5-1.5,1.5h-1.3
		c-0.8,0-1.5-0.6-1.5-1.5v-2.8h4.3V46.4z M38.6,46.4c0,0.8-0.7,1.5-1.5,1.5h-1.3c-0.8,0-1.5-0.6-1.5-1.5v-2.8h4.3V46.4z M43.5,33
		v5.2c0,2.2-1.7,4.1-3.9,4.3c0,0-0.1,0-0.1,0c-0.1,0-0.2,0-0.4,0H8.8c-0.2,0-0.5,0-0.7-0.1c0,0-0.1,0-0.1,0c-2-0.4-3.6-2.2-3.6-4.3
		V33c0-1.4,0.6-2.6,1.6-3.4c0.3-0.2,0.6-0.4,1-0.6c0.6-0.3,1.2-0.4,1.8-0.4h30.4c0.6,0,1.2,0.1,1.8,0.4c0.3,0.1,0.7,0.4,1,0.6
		C42.9,30.5,43.5,31.7,43.5,33z M45.1,28.1c-0.9,0-1.6-0.7-1.6-1.6c0-0.9,0.7-1.6,1.6-1.6c0.9,0,1.6,0.7,1.6,1.6
		C46.7,27.4,46,28.1,45.1,28.1z"/>
</g>
</svg>
