<?xml version="1.0" encoding="utf-8"?>
<!-- Generator: Adobe Illustrator 18.1.0, SVG Export Plug-In . SVG Version: 6.00 Build 0)  -->
<!DOCTYPE svg PUBLIC "-//W3C//DTD SVG 1.1//EN" "http://www.w3.org/Graphics/SVG/1.1/DTD/svg11.dtd">
<svg version="1.1" id="Слой_1" xmlns="http://www.w3.org/2000/svg" xmlns:xlink="http://www.w3.org/1999/xlink" x="0px" y="0px"
	 viewBox="0 0 50.5 41.96" enable-background="new 0 0 50.5 41.96" xml:space="preserve">
<g>
	<path fill="#FF6600" d="M29.052,2c2.377,0,4.322,2.082,4.624,4.76h2.966c1.836,0,3.934,1.67,4.768,3.8l2.692,6.865
		c0.07-0.008,0.139-0.025,0.213-0.025h2.067h0.002c1.168,0,2.116,1.077,2.116,2.409c0,1.33-0.95,2.408-2.118,2.408h-0.52
		c0,0.004,0.002,0.006,0.002,0.01c0.282,0.83,0.44,1.739,0.44,2.692v2.822c0,2.76-0.673,5.142-2.195,6.301v3.1
		c0,1.557-1.112,2.818-2.48,2.818h-2.274c-1.368,0-2.479-1.263-2.479-2.818v-2.351h-23.25v2.351c0,1.557-1.111,2.818-2.48,2.818
		H8.873c-1.369,0-2.48-1.263-2.48-2.818v-3.1C4.873,32.883,4.2,30.501,4.2,27.741v-2.822c0-0.951,0.156-1.859,0.435-2.689
		c0-0.003,0.003-0.007,0.003-0.013h-0.52C2.948,22.217,2,21.139,2,19.811C2,18.479,2.948,17.4,4.118,17.4h2.066
		c0.075,0,0.144,0.017,0.216,0.025l2.69-6.863c0.85-2.168,2.9-3.802,4.768-3.802h2.966C17.124,4.083,19.071,2,21.447,2H29.052
		 M14.888,22.892h20.725c3.43,0,6.112-1.784,6.112-4.056c0-0.293-0.055-0.814-0.06-0.838c-0.528-2.132-2.56-6.538-2.56-6.538
		c-0.492-1.254-1.726-2.226-2.458-2.226H13.861c-0.732,0-1.966,0.972-2.458,2.228c0,0-1.788,4.094-2.564,6.538
		c-0.007,0.022-0.062,0.545-0.062,0.837C8.777,21.111,11.461,22.892,14.888,22.892 M38.793,31.352c2.173,0,3.931-1.303,3.931-2.908
		c0-1.605-1.758-2.911-3.931-2.911c-2.17,0-3.932,1.303-3.932,2.911C34.861,30.049,36.621,31.352,38.793,31.352 M11.708,31.352
		c2.172,0,3.933-1.303,3.933-2.908c0-1.605-1.761-2.911-3.933-2.911c-2.169,0-3.931,1.303-3.931,2.911
		C7.777,30.049,9.538,31.352,11.708,31.352 M40.158,17.868c0.201,0.304,0.328,0.63,0.328,0.969c0,1.526-2.233,2.817-4.872,2.817
		H14.888h-0.006c-2.638,0-4.866-1.291-4.866-2.817c0-0.339,0.125-0.665,0.327-0.969H40.158 M29.052,0h-7.605
		c-2.793,0-5.232,1.952-6.209,4.76h-1.38c-2.689,0-5.477,2.133-6.63,5.072L5.045,15.4H4.118C1.847,15.4,0,17.379,0,19.811
		c0,1.717,0.922,3.208,2.265,3.934C2.222,24.133,2.2,24.524,2.2,24.919v2.822c0,3.144,0.755,5.596,2.193,7.17v2.231
		c0,2.657,2.009,4.818,4.48,4.818h2.273c2.47,0,4.48-2.161,4.48-4.818v-0.351h19.25v0.351c0,2.657,2.009,4.818,4.479,4.818h2.274
		c2.47,0,4.48-2.161,4.48-4.818v-2.23c1.44-1.574,2.195-4.026,2.195-7.171v-2.822c0-0.395-0.022-0.787-0.066-1.176
		c1.341-0.728,2.262-2.218,2.262-3.934c0-2.431-1.846-4.409-4.115-4.409h-0.929l-2.184-5.57c-1.131-2.89-3.981-5.07-6.63-5.07
		h-1.381C34.282,1.952,31.843,0,29.052,0 M14.057,11.234h22.394c0.204,0.124,0.606,0.483,0.791,0.956l0.022,0.055l0.025,0.053
		c0.319,0.693,0.968,2.157,1.529,3.57H11.743c0.727-1.848,1.481-3.579,1.493-3.605l0.015-0.035l0.014-0.036
		C13.45,11.718,13.853,11.359,14.057,11.234 M38.793,29.352c-1.255,0-1.932-0.645-1.932-0.908c0-0.264,0.677-0.911,1.932-0.911
		c1.254,0,1.931,0.647,1.931,0.911C40.724,28.707,40.047,29.352,38.793,29.352 M11.708,29.352c-1.254,0-1.931-0.645-1.931-0.908
		c0-0.264,0.677-0.911,1.931-0.911c1.202,0,1.933,0.633,1.933,0.911C13.641,28.707,12.963,29.352,11.708,29.352"/>
</g>
</svg>
