<?xml version="1.0" encoding="utf-8"?>
<!-- Generator: Adobe Illustrator 18.1.0, SVG Export Plug-In . SVG Version: 6.00 Build 0)  -->
<!DOCTYPE svg PUBLIC "-//W3C//DTD SVG 1.1//EN" "http://www.w3.org/Graphics/SVG/1.1/DTD/svg11.dtd">
<svg version="1.1" id="Слой_1" xmlns="http://www.w3.org/2000/svg" xmlns:xlink="http://www.w3.org/1999/xlink" x="0px" y="0px"
	 viewBox="0 0 47.84 49.37" enable-background="new 0 0 47.84 49.37" xml:space="preserve">
<g>
	<path fill="#FF6600" d="M37.171,49.37h-1.344c-1.618,0-2.935-1.317-2.935-2.935v-2.296h-18.11v2.296
		c0,1.618-1.317,2.935-2.935,2.935h-1.344c-1.618,0-2.935-1.317-2.935-2.935v-2.417c-2.735-0.578-4.665-2.938-4.665-5.736v-5.24
		c0-1.732,0.776-3.371,2.069-4.458l-0.269-0.127c-0.514,0.519-1.219,0.82-1.954,0.82c-1.517,0-2.75-1.233-2.75-2.75
		c0-1.517,1.233-2.75,2.75-2.75c1.511,0,2.74,1.233,2.74,2.75c0,0.143-0.011,0.284-0.033,0.422l0.037,0.017v-3.372
		c0-4.841,3.938-8.779,8.779-8.779h2.12v-0.87H7.114c-0.544,0-0.987-0.443-0.987-0.987c0-0.544,0.443-0.987,0.987-0.987h2.198v-8.24
		h7.227V0h17.353v6.059h5.698v5.912h0.844c0.545,0,0.987,0.443,0.987,0.987c0,0.544-0.443,0.987-0.987,0.987h-8.499v0.87h1.662
		c4.841,0,8.779,3.938,8.779,8.779v2.554c0.185-1.338,1.332-2.372,2.714-2.372c1.517,0,2.75,1.233,2.75,2.75
		c0,1.517-1.233,2.75-2.75,2.75c-0.735,0-1.439-0.301-1.953-0.82l-0.246,0.116c1.314,1.092,2.076,2.708,2.076,4.47v5.24
		c0,2.897-2.059,5.301-4.861,5.768v2.385C40.106,48.053,38.789,49.37,37.171,49.37z M34.866,44.139v2.296
		c0,0.539,0.422,0.961,0.961,0.961h1.344c0.539,0,0.961-0.422,0.961-0.961v-2.296H34.866z M9.542,44.139v2.296
		c0,0.539,0.422,0.961,0.961,0.961h1.344c0.539,0,0.961-0.422,0.961-0.961v-2.296H9.542z M8.76,29.159
		c-0.551,0-1.084,0.116-1.584,0.345c-0.32,0.137-0.614,0.316-0.862,0.523c-0.915,0.744-1.438,1.842-1.438,3.015v5.24
		c0,1.866,1.328,3.47,3.157,3.814l0.099,0.029c0.216,0.023,0.413,0.039,0.627,0.039h30.35c0.111,0,0.223-0.008,0.326-0.017
		l0.056-0.02l0.061,0.001c1.961-0.208,3.44-1.862,3.44-3.847v-5.24c0-1.173-0.522-2.27-1.433-3.011
		c-0.268-0.216-0.564-0.397-0.855-0.522c-0.497-0.231-1.044-0.35-1.595-0.35H8.76z M45.09,25.457c-0.583,0-1.058,0.479-1.058,1.069
		c0,0.589,0.475,1.068,1.058,1.068c0.589,0,1.068-0.479,1.068-1.068C46.158,25.936,45.679,25.457,45.09,25.457z M2.75,25.457
		c-0.589,0-1.068,0.479-1.068,1.069c0,0.589,0.479,1.068,1.068,1.068c0.584,0,1.059-0.479,1.059-1.068
		C3.809,25.936,3.334,25.457,2.75,25.457z M8.76,27.185h30.35c0.439,0,0.871,0.048,1.292,0.145v-3.735
		c0-3.752-3.053-6.805-6.805-6.805h-6.255c0.815,0.143,1.437,0.855,1.437,1.711c0,0.952-0.779,1.727-1.737,1.727h-6.487
		c-0.958,0-1.737-0.775-1.737-1.727c0-0.856,0.622-1.568,1.437-1.711h-5.982c-3.752,0-6.805,3.053-6.805,6.805v3.733
		C7.885,27.233,8.317,27.185,8.76,27.185z M20.555,18.445c-0.025,0-0.055,0.009-0.055,0.055l6.542,0.045v-0.1H20.555z
		 M18.367,14.815h11.594v-0.87H18.367V14.815z M26.051,11.971h11.857v-4.23H26.051V11.971z M23.178,11.971h1.192V6.059h7.84V1.682
		H18.221v2.049h4.957V11.971z M10.994,11.971h10.502V9.123h-1.727v0.806c0,0.464-0.377,0.841-0.841,0.841s-0.841-0.377-0.841-0.841
		V9.123h-4.279v0.806c0,0.464-0.377,0.841-0.841,0.841c-0.463,0-0.84-0.377-0.84-0.841V9.123h-1.133V11.971z M19.769,7.442h1.727
		V5.413h-1.727V7.442z M13.808,7.442h4.279V5.413h-4.279V7.442z M10.994,7.442h1.133V5.413h-1.133V7.442z M37.076,39.332
		c-2.098,0-3.804-1.707-3.804-3.804c0-2.098,1.707-3.804,3.804-3.804c2.098,0,3.804,1.706,3.804,3.804
		C40.88,37.625,39.174,39.332,37.076,39.332z M35.838,36.875c0.326,0.3,0.761,0.483,1.238,0.483c1.009,0,1.83-0.821,1.83-1.83
		c0-0.675-0.367-1.265-0.912-1.582c0.009,0.046,0.015,0.095,0.016,0.144c0.012,0.458-0.354,0.845-0.814,0.859
		c-0.12,0.005-0.74,0.084-0.769,1.148C36.417,36.46,36.17,36.768,35.838,36.875z M10.206,39.332c-2.097,0-3.804-1.707-3.804-3.804
		c0-2.098,1.707-3.804,3.804-3.804c2.098,0,3.804,1.706,3.804,3.804C14.01,37.625,12.304,39.332,10.206,39.332z M9.007,36.91
		c0.321,0.279,0.741,0.449,1.199,0.449c1.009,0,1.83-0.821,1.83-1.83c0-0.579-0.271-1.097-0.692-1.432
		c0.008,0.456-0.355,0.838-0.814,0.853c-0.12,0.005-0.741,0.084-0.769,1.148C9.749,36.525,9.425,36.868,9.007,36.91z M33.101,38.724
		H14.447v-1.682h18.654V38.724z M33.101,36.741H14.447v-1.682h18.654V36.741z M33.101,34.584H14.447v-1.682h18.654V34.584z
		 M9.712,23.68H9.704c-0.472-0.012-0.84-0.396-0.833-0.855c0.005-0.164,0.157-3.881,4.273-4.998l0.221-0.03
		c0.376,0,0.709,0.254,0.81,0.618c0.12,0.449-0.144,0.911-0.587,1.035c-2.938,0.796-3.032,3.303-3.035,3.409
		C10.541,23.312,10.163,23.68,9.712,23.68z"/>
</g>
</svg>
