<svg xmlns="http://www.w3.org/2000/svg" viewBox="0 0 50.5 41.96" enable-background="new 0 0 50.5 41.96"><path fill="#f60" d="M29.052 2c2.377 0 4.322 2.082 4.624 4.76h2.966c1.836 0 3.934 1.67 4.768 3.8l2.692 6.865.213-.025h2.069c1.168 0 2.116 1.077 2.116 2.409 0 1.33-.95 2.408-2.118 2.408h-.52l.002.01c.282.83.44 1.739.44 2.692v2.822c0 2.76-.673 5.142-2.195 6.301v3.1c0 1.557-1.112 2.818-2.48 2.818h-2.274c-1.368 0-2.479-1.263-2.479-2.818v-2.351h-23.25v2.351c0 1.557-1.111 2.818-2.48 2.818h-2.273c-1.369 0-2.48-1.263-2.48-2.818v-3.1c-1.52-1.159-2.193-3.541-2.193-6.301v-2.822c0-.951.156-1.859.435-2.689l.003-.013h-.52c-1.17 0-2.118-1.078-2.118-2.406 0-1.332.948-2.411 2.118-2.411h2.066l.216.025 2.69-6.863c.85-2.168 2.9-3.802 4.768-3.802h2.966c.3-2.677 2.247-4.76 4.623-4.76h7.605m-14.164 20.892h20.725c3.43 0 6.112-1.784 6.112-4.056 0-.293-.055-.814-.06-.838-.528-2.132-2.56-6.538-2.56-6.538-.492-1.254-1.726-2.226-2.458-2.226h-22.786c-.732 0-1.966.972-2.458 2.228 0 0-1.788 4.094-2.564 6.538-.007.022-.062.545-.062.837 0 2.274 2.684 4.055 6.111 4.055m23.905 8.46c2.173 0 3.931-1.303 3.931-2.908s-1.758-2.911-3.931-2.911c-2.17 0-3.932 1.303-3.932 2.911 0 1.605 1.76 2.908 3.932 2.908m-27.085 0c2.172 0 3.933-1.303 3.933-2.908s-1.761-2.911-3.933-2.911c-2.169 0-3.931 1.303-3.931 2.911 0 1.605 1.761 2.908 3.931 2.908m28.45-13.484c.201.304.328.63.328.969 0 1.526-2.233 2.817-4.872 2.817h-20.732c-2.638 0-4.866-1.291-4.866-2.817 0-.339.125-.665.327-.969h29.815m-11.106-17.868h-7.605c-2.793 0-5.232 1.952-6.209 4.76h-1.38c-2.689 0-5.477 2.133-6.63 5.072l-2.183 5.568h-.927c-2.271 0-4.118 1.979-4.118 4.411 0 1.717.922 3.208 2.265 3.934-.043.388-.065.779-.065 1.174v2.822c0 3.144.755 5.596 2.193 7.17v2.231c0 2.657 2.009 4.818 4.48 4.818h2.273c2.47 0 4.48-2.161 4.48-4.818v-.351h19.25v.351c0 2.657 2.009 4.818 4.479 4.818h2.274c2.47 0 4.48-2.161 4.48-4.818v-2.23c1.44-1.574 2.195-4.026 2.195-7.171v-2.822c0-.395-.022-.787-.066-1.176 1.341-.728 2.262-2.218 2.262-3.934 0-2.431-1.846-4.409-4.115-4.409h-.929l-2.184-5.57c-1.131-2.89-3.981-5.07-6.63-5.07h-1.381c-.979-2.808-3.418-4.76-6.209-4.76m-14.995 11.234h22.394c.204.124.606.483.791.956l.022.055.025.053c.319.693.968 2.157 1.529 3.57h-27.075c.727-1.848 1.481-3.579 1.493-3.605l.015-.035.014-.036c.185-.474.588-.833.792-.958m24.736 18.118c-1.255 0-1.932-.645-1.932-.908 0-.264.677-.911 1.932-.911 1.254 0 1.931.647 1.931.911 0 .263-.677.908-1.931.908m-27.085 0c-1.254 0-1.931-.645-1.931-.908 0-.264.677-.911 1.931-.911 1.202 0 1.933.633 1.933.911 0 .263-.678.908-1.933.908"/></svg>