<svg baseProfile="full" xmlns="http://www.w3.org/2000/svg" height="14" width="13"><path opacity=".2" fill="rgb( 0, 0, 0 )" d="M11.538 12.396h.851c.338 0 .611.263.611.587v.43c0 .324-.273.587-.611.587h-11.778c-.338 0-.611-.263-.611-.587v-.43c0-.324.273-.587.611-.587h.852c.023-2.25.936-4.3 2.367-5.464-1.398-1.138-2.302-3.127-2.367-5.305h-.852c-.338 0-.611-.262-.611-.587v-.453c0-.324.273-.587.611-.587h11.778c.338 0 .611.263.611.587v.453c0 .325-.273.587-.611.587h-.853c-.064 2.178-.968 4.168-2.365 5.305 1.43 1.165 2.343 3.215 2.367 5.464zm-3.972-5.97l.229-.106c1.511-.71 2.546-2.587 2.621-4.693h-7.832c.076 2.106 1.11 3.983 2.622 4.694l.228.104c.198.094.324.288.324.5 0 .212-.126.407-.324.5l-.228.11c-1.55.729-2.596 2.659-2.623 4.861h7.833c-.027-2.202-1.072-4.133-2.622-4.861l-.228-.113c-.198-.093-.323-.286-.322-.498 0-.212.124-.405.322-.498zm1.749 5.419h-5.301c.182-1.244 1.293-2.226 2.651-2.226 1.358 0 2.469.982 2.65 2.226zm-6.06-8.346h6.493c-.296.893-2.353 2.693-3.247 2.626-1.144-.086-2.821-1.425-3.246-2.626z"/></svg>