<svg baseProfile="full" xmlns="http://www.w3.org/2000/svg" height="29" width="27"><path fill="rgb( 48, 171, 223 )" d="M26.858 6.66l-.198.759c-.142.543-.701.861-1.249.711l-1.384-.381c-1.058 3.618-3.397 6.547-6.162 7.828 1.813 2.589 2.398 6.43 1.452 10.207l1.382.38c.548.151.877.713.735 1.255l-.188.72c-.142.542-.701.861-1.249.71l-19.121-5.253c-.547-.151-.876-.714-.734-1.256l.188-.719c.142-.543.7-.861 1.248-.711l1.383.38c1.023-3.758 3.401-6.784 6.234-8.095-1.771-2.528-2.369-6.263-1.521-9.939l-1.384-.38c-.547-.151-.876-.713-.734-1.256l.198-.759c.142-.543.701-.861 1.249-.71l19.12 5.253c.548.151.877.713.735 1.256zm-17.364-2.904c-.799 3.56.058 7.165 2.202 9.029l.325.276c.281.246.399.627.306.982-.093.355-.381.625-.744.692l-.418.083c-2.834.53-5.377 3.296-6.385 6.972l12.716 3.494c.92-3.7.069-7.4-2.129-9.311l-.322-.29c-.279-.245-.398-.623-.304-.978.093-.356.379-.623.741-.69l.417-.075c2.765-.517 5.265-3.198 6.309-6.69l-12.714-3.494zm4.391 9.279c-1.82-.653-3.956-3.645-4.122-5.845l10.542 2.896c-.872 1.363-4.998 3.46-6.42 2.949zm2.064 10.834l-8.604-2.364c.84-2.002 3.072-3.152 5.277-2.546 2.204.605 3.578 2.746 3.327 4.91z"/></svg>