<?xml version="1.0" encoding="utf-8"?>
<!-- Generator: Adobe Illustrator 18.1.0, SVG Export Plug-In . SVG Version: 6.00 Build 0)  -->
<!DOCTYPE svg PUBLIC "-//W3C//DTD SVG 1.1//EN" "http://www.w3.org/Graphics/SVG/1.1/DTD/svg11.dtd">
<svg version="1.1" id="Layer_1" xmlns="http://www.w3.org/2000/svg" xmlns:xlink="http://www.w3.org/1999/xlink" x="0px" y="0px"
	 viewBox="0 0 44 48" enable-background="new 0 0 44 48" xml:space="preserve">
<g>
	<path fill="#FF6600" d="M37,18.8c-1.5-4.4-4.7-8-10.9-9.6c-0.8-0.2-1.7-0.4-1.8,0.4c-0.1,0.8,0,0.5,1.4,0.9c5.7,1.8,8,4,10.2,9
		c0.3,0.6,0.3,1.4,0.9,1.4c0.2,0,0,0,0.2-0.1C37.7,20.5,37.2,19.6,37,18.8z M28.1,5.4v-2c0-1.9-1.6-3.5-3.5-3.5h-5.1
		c-2,0-3.5,1.6-3.5,3.5v2C6.5,8.1,0,16.5,0,26.3C0,38.3,9.9,48,22,48c12.1,0,22-9.7,22-21.7C44,16.5,37.5,8.1,28.1,5.4z M17.8,2.5
		c0-0.3,0.3-0.6,0.6-0.6h7.1c0.3,0,0.6,0.3,0.6,0.6v2.3c-0.1,0-1.2,0-1.3,0c-0.3,0-0.6-0.1-0.9-0.1c-0.2,0-0.3,0-0.5,0
		c-0.4,0-0.8,0-1.2,0c-0.1,0-0.3,0-0.4,0c-0.4,0-0.8,0-1.2,0c-0.2,0-0.4,0-0.5,0c-0.3,0-0.6,0.1-0.9,0.1c-0.1,0-1.2,0-1.3,0V2.5z
		 M22,45.6c-10.8,0-19.6-8.8-19.6-19.5c0-9.2,6.2-17,15.2-19c2.9-0.7,5.9-0.7,8.9,0l0.8,0.3c8.5,2,14.4,9.6,14.4,18.8
		C41.6,36.9,32.8,45.6,22,45.6z M26.7,22.6C26.7,22.6,26.7,22.6,26.7,22.6c-0.1-0.1-0.1-0.2-0.2-0.3c0,0,0,0,0,0c0,0,0,0,0,0
		c-0.1-0.1-0.2-0.1-0.3-0.2c0,0,0,0,0,0l-14.4-7.8c-0.6-0.3-1.3-0.2-1.7,0.2c-0.5,0.5-0.6,1.2-0.3,1.7l7.8,14c0,0,0,0,0,0
		c0.1,0.1,0.1,0.2,0.2,0.3c0,0,0,0,0,0c0,0,0,0,0,0c0.1,0.1,0.2,0.1,0.3,0.2c0,0,0,0,0,0l14.2,7.6c0.2,0.1,0.5,0.2,0.7,0.2h0
		c0.8,0,1.5-0.6,1.5-1.4c0-0.3-0.1-0.6-0.3-0.9L26.7,22.6z M12.7,17.1l10.6,6.1l-4.6,4.5L12.7,17.1z M20.6,29l4.2-4l6.6,10.5
		L20.6,29z"/>
</g>
</svg>
