<?xml version="1.0" encoding="utf-8"?>
<!-- Generator: Adobe Illustrator 18.1.0, SVG Export Plug-In . SVG Version: 6.00 Build 0)  -->
<!DOCTYPE svg PUBLIC "-//W3C//DTD SVG 1.1//EN" "http://www.w3.org/Graphics/SVG/1.1/DTD/svg11.dtd">
<svg version="1.1" id="Слой_1" xmlns="http://www.w3.org/2000/svg" xmlns:xlink="http://www.w3.org/1999/xlink" x="0px" y="0px"
	 viewBox="0 0 44 48" enable-background="new 0 0 44 48" xml:space="preserve">
<g>
	<path fill="#FF6600" d="M36.961,18.805c-1.528-4.363-4.711-7.993-10.898-9.618c-0.782-0.205-1.706-0.417-1.806,0.375
		c-0.1,0.791,0.042,0.467,1.368,0.875c5.687,1.75,8,4,10.25,9c0.26,0.578,0.297,1.366,0.904,1.366c0.158,0,0,0,0.158-0.053
		C37.703,20.49,37.224,19.56,36.961,18.805z M28.102,5.448V3.495c0-1.927-1.588-3.495-3.54-3.495h-5.124
		c-1.952,0-3.54,1.568-3.54,3.495v1.953C6.485,8.114,0,16.513,0,26.289C0,38.259,9.87,48,22,48c12.13,0,22-9.74,22-21.711
		C44,16.514,37.515,8.114,28.102,5.448z M17.827,2.495c0-0.333,0.275-0.604,0.611-0.604h7.124c0.336,0,0.611,0.271,0.611,0.604
		v2.311c-0.096-0.015-1.192-0.018-1.288-0.031C24.57,4.734,24.256,4.7,23.94,4.673c-0.175-0.015-0.35-0.034-0.524-0.045
		c-0.405-0.025-0.809-0.04-1.214-0.043c-0.135-0.001-0.271-0.001-0.407,0c-0.405,0.003-0.809,0.017-1.212,0.043
		c-0.176,0.012-0.351,0.029-0.527,0.045C19.743,4.7,19.431,4.734,19.12,4.773c-0.098,0.013-1.196,0.018-1.293,0.033V2.495z
		 M22,45.627c-10.822,0-19.625-8.767-19.625-19.543c0-9.151,6.247-16.977,15.191-19.035c2.927-0.672,5.94-0.672,8.868,0l0.789,0.269
		c8.522,1.95,14.403,9.621,14.403,18.766C41.625,36.859,32.821,45.627,22,45.627z M26.686,22.578
		c-0.006-0.01-0.014-0.015-0.02-0.025c-0.057-0.1-0.124-0.198-0.209-0.286c-0.004-0.004-0.009-0.007-0.014-0.011
		c-0.012-0.012-0.025-0.021-0.038-0.033c-0.082-0.077-0.17-0.141-0.265-0.196c-0.013-0.009-0.023-0.021-0.037-0.028l-14.381-7.817
		c-0.57-0.309-1.279-0.21-1.741,0.243c-0.461,0.453-0.564,1.153-0.252,1.716l7.77,14.044c0.004,0.01,0.013,0.015,0.018,0.024
		c0.058,0.101,0.124,0.195,0.208,0.283c0.005,0.004,0.011,0.008,0.016,0.013c0.014,0.015,0.032,0.026,0.047,0.041
		c0.08,0.073,0.166,0.136,0.256,0.188c0.015,0.008,0.025,0.021,0.04,0.03l14.198,7.634c0.22,0.119,0.461,0.177,0.699,0.177h0.016
		c0.808,0,1.464-0.648,1.464-1.445c0-0.318-0.104-0.612-0.28-0.85L26.686,22.578z M12.708,17.106l10.6,6.084l-4.645,4.47
		L12.708,17.106z M20.558,29.024L24.75,25l6.597,10.528L20.558,29.024z"/>
</g>
</svg>
