<svg xmlns="http://www.w3.org/2000/svg" viewBox="0 0 44 48" enable-background="new 0 0 44 48"><path fill="#f60" d="M36.961 18.805c-1.528-4.363-4.711-7.993-10.898-9.618-.782-.205-1.706-.417-1.806.375-.1.791.042.467 1.368.875 5.687 1.75 8 4 10.25 9 .26.578.297 1.366.904 1.366l.158-.053c.766-.26.287-1.19.024-1.945zm-8.859-13.357v-1.953c0-1.927-1.588-3.495-3.54-3.495h-5.124c-1.952 0-3.54 1.568-3.54 3.495v1.953c-9.413 2.666-15.898 11.065-15.898 20.841 0 11.97 9.87 21.711 22 21.711s22-9.74 22-21.711c0-9.775-6.485-18.175-15.898-20.841zm-10.275-2.953c0-.333.275-.604.611-.604h7.124c.336 0 .611.271.611.604v2.311l-1.288-.031c-.315-.041-.629-.075-.945-.102l-.524-.045c-.405-.025-.809-.04-1.214-.043h-.407c-.405.003-.809.017-1.212.043l-.527.045c-.313.027-.625.061-.936.1l-1.293.033v-2.311zm4.173 43.132c-10.822 0-19.625-8.767-19.625-19.543 0-9.151 6.247-16.977 15.191-19.035 2.927-.672 5.94-.672 8.868 0l.789.269c8.522 1.95 14.403 9.621 14.403 18.766-.001 10.775-8.805 19.543-19.626 19.543zm4.686-23.049l-.02-.025c-.057-.1-.124-.198-.209-.286l-.014-.011-.038-.033c-.082-.077-.17-.141-.265-.196l-.037-.028-14.381-7.817c-.57-.309-1.279-.21-1.741.243-.461.453-.564 1.153-.252 1.716l7.77 14.044.018.024c.058.101.124.195.208.283l.016.013.047.041.256.188.04.03 14.198 7.634c.22.119.461.177.699.177h.016c.808 0 1.464-.648 1.464-1.445 0-.318-.104-.612-.28-.85l-7.495-13.702zm-13.978-5.472l10.6 6.084-4.645 4.47-5.955-10.554zm7.85 11.918l4.192-4.024 6.597 10.528-10.789-6.504z"/></svg>