<svg baseProfile="full" xmlns="http://www.w3.org/2000/svg" height="30" width="33"><path fill="rgb( 48, 171, 223 )" d="M14.025 0h-1.485c-.363 0-.66.3-.66.667v6.333h-5.834c-.273 0-.611.063-.936.164-.325.101-.638.241-.859.394l-3.919 2.717c-.221.154-.332.356-.332.558 0 .203.111.404.332.558l3.919 2.718c.221.153.534.292.859.394.325.101.663.164.936.164h5.834v14.667c0 .366.297.666.66.666h1.485c.363 0 .66-.3.66-.666v-28.667c0-.367-.297-.667-.66-.667zm18.643 6.943l-3.919-2.718c-.221-.154-.534-.293-.859-.395-.326-.1-.664-.163-.936-.163h-11.279l1.321 7.666h9.958c.272 0 .611-.062.936-.164.325-.101.638-.24.859-.394l3.919-2.717c.221-.153.332-.355.332-.558 0-.202-.111-.404-.332-.557z"/></svg>