<svg baseProfile="full" xmlns="http://www.w3.org/2000/svg" height="16" width="13"><path fill="rgb( 0, 0, 0 )" d="M9.507.202h-7.764c-.522 0-.946.429-.946.956v13.686c0 .528.424.957.946.957h9.511c.522 0 .946-.429.946-.957v-11.684l-2.693-2.958zm.224 1.431l1.18 1.297h-1.18v-1.297zm1.674 13.211c0 .084-.068.153-.151.153h-9.511c-.084 0-.152-.069-.152-.153v-13.686c0-.084.068-.152.152-.152h7.193v2.326c0 .221.179.401.397.401h2.072v11.111zm-8.412-10.37h6.746c.165 0 .298.135.298.301 0 .166-.133.301-.298.301h-6.746c-.165 0-.298-.135-.298-.301 0-.166.133-.301.298-.301zm7.044 2.323c0 .167-.133.301-.298.301h-6.746c-.165 0-.298-.134-.298-.301 0-.166.133-.3.298-.3h6.746c.165 0 .298.134.298.3zm0 1.957c0 .166-.133.301-.298.301h-6.746c-.165 0-.298-.135-.298-.301 0-.166.133-.301.298-.301h6.746c.165 0 .298.135.298.301zm0 1.989c0 .166-.133.301-.298.301h-6.746c-.165 0-.298-.135-.298-.301 0-.166.133-.301.298-.301h6.746c.165 0 .298.135.298.301z"/></svg>