<svg baseProfile="full" xmlns="http://www.w3.org/2000/svg" height="30" width="34"><path fill="rgb( 48, 171, 223 )" d="M9.46 2.555c0 1.405-1.115 2.545-2.486 2.545-1.373 0-2.486-1.14-2.486-2.545 0-1.406 1.111-2.548 2.486-2.548 1.371 0 2.486 1.14 2.486 2.548zm-2.225 17.444l.537 9.404c0 .326.259.597.58.597.323 0 .584-.271.584-.597l.496-9.404h1.62l-1.674-10.538 3.371 6.892c.123.303.464.448.762.321.296-.131.436-.479.311-.787 0 0-2.47-6.857-3.081-8.135-.611-1.279-1.212-2.057-3.53-2.057h-.474c-2.313 0-2.919.776-3.526 2.057-.609 1.278-3.082 8.135-3.082 8.135-.129.308.011.656.305.787.297.127.638-.018.767-.321l3.37-6.892-1.676 10.538h1.617l.503 9.404c0 .326.262.597.58.597.329 0 .589-.271.589-.597l.5-9.404h.551zm19.79-19.999c-1.37 0-2.487 1.14-2.487 2.548 0 1.408 1.115 2.548 2.487 2.548 1.368 0 2.481-1.14 2.481-2.548 0-1.408-1.111-2.548-2.481-2.548zm2.576 14.996l.165-5.542 3.031 6.895c.128.3.469.448.764.316.302-.131.439-.479.316-.787 0 0-2.135-6.857-2.745-8.134-.613-1.278-1.554-2.053-3.869-2.053h-.476c-2.313 0-3.256.775-3.869 2.053-.608 1.277-2.74 8.134-2.74 8.134-.128.308.011.656.308.787.298.132.641-.016.76-.316l3.038-6.895.163 5.542-.478 13.932c-.033.552.37 1.031.901 1.067l.071.005c.511 0 .938-.403.98-.932l1.1-11.471 1.11 11.471c.033.534.463.932.969.932l.071-.005c.537-.036.938-.515.903-1.067l-.48-13.932h.007zm-12.602.493c-.844 0-1.528.697-1.528 1.561s.684 1.56 1.528 1.56c.841 0 1.524-.696 1.524-1.56 0-.864-.683-1.561-1.524-1.561zm0 9.205l.686 4.894c.095.24.313.412.581.412.273 0 .502-.185.586-.441.004-.016.019-.305.004-.351l-.282-6.009.088-2.065c.08-.701.097-.488.872-.968.798-.488 2.144-2.637 2.208-2.741.066-.108.189-.296.211-.416.04-.217-.096-.421-.304-.466-.158-.027-.295.059-.396.172-.104.115-1.657 2.239-2.822 2.443-.262-.041-.543-.181-1.286-.181h-.293c-.738 0-1.02.144-1.283.181-1.167-.204-2.721-2.328-2.83-2.443-.099-.113-.228-.199-.39-.172-.207.045-.347.249-.304.466.022.12.145.308.212.416.067.104 1.419 2.253 2.208 2.741.779.48.797.267.872.968l.087 2.065-.28 6.009c-.016.05 0 .339.012.351.08.256.306.441.581.441.263 0 .489-.172.576-.412-.003-.004.686-4.894.686-4.894"/></svg>