<svg baseProfile="full" xmlns="http://www.w3.org/2000/svg" height="39" width="18"><path opacity=".2" fill="rgb( 0, 0, 0 )" d="M16.612 19.655c-.759.232-1.562-.194-1.795-.952-.001 0-2.148-7.002-2.148-7.002-.013-.03-.077-.153-.227-.153h-.303c-.086-.002-.136.071-.113.153l4.299 14.071c.023.082 0 .225-.15.225h-3.016c-.085 0-.148.07-.148.155l.001 10.255c0 1.023-.83 1.853-1.853 1.853-1.023 0-1.853-.83-1.853-1.853l-.001-10.255c0-.085-.069-.154-.154-.154h-.301c-.086 0-.155.069-.155.154l-.001 10.255c0 1.023-.829 1.853-1.853 1.853-1.023 0-1.853-.83-1.853-1.853l.001-10.255c0-.085-.062-.155-.148-.155h-3.016c-.149 0-.172-.143-.149-.225l4.298-14.071c.023-.082-.027-.155-.112-.153h-.304c-.15 0-.214.123-.226.153l-2.148 7.002c-.234.758-1.037 1.184-1.795.952-.759-.233-1.186-1.037-.953-1.796l2.153-7.032c.329-1.142 1.128-3.741 3.386-3.741h6.058c2.423 0 3.05 2.599 3.378 3.741 0 0 2.153 7.029 2.153 7.032.233.759-.193 1.563-.952 1.796zm-7.612-13.398c-1.523 0-2.757-1.235-2.757-2.759 0-1.523 1.234-2.758 2.757-2.758 1.523 0 2.758 1.235 2.758 2.758 0 1.524-1.235 2.759-2.758 2.759z"/></svg>