<svg baseProfile="full" xmlns="http://www.w3.org/2000/svg" height="33" width="23"><path fill="rgb( 255, 102, 0 )" d="M22.751 18.434l-.273.134-1.148.563-1.308-.976-.251-.187-.232-.173-.064-.048.19-17.369c1.43 1.113 2.338 3.827 2.441 4.147l.866 13.354.028.432-.249.123zm-8.51-2.953c-.167.102-.347.184-.54.245l.42 16.193c0 .337-.716.73-1.052.73h-.554c-.336 0-1.051-.361-1.051-.698l.421-16.241c-.193-.067-.373-.156-.539-.267-.22-.147-.414-.335-.586-.556-.534-.689-.827-1.726-.827-3.065 0-4.091.127-9.217.66-11.133.193-.689-.002-.566.911.06l.089 8.201c0 .126.057.725.129.725h.118c.071 0 .129-.599.129-.725l.344-7.606c.091 0 .874.508 1.191.656l.333 7.012c0 .125.058.663.129.663h.119c.071 0 .13-.599.13-.724l.09-6.389c1.373 1.049 1.373 3.981 1.373 9.366 0 1.416-.326 2.463-.92 3.12-.154.171-.327.316-.517.433zm-1.402 14.756c-.398 0-.72.331-.72.739 0 .409.322.74.72.74.397 0 .72-.331.721-.74 0-.408-.323-.739-.721-.739zm-8.279-18.509l.466 20.225c0 .425-.8.697-1.176.697h-.62c-.376 0-1.176-.272-1.176-.697l.467-20.254c-1.601-.545-2.521-2.325-2.521-4.441 0-2.55 1.332-6.549 3.587-6.549 2.254 0 3.586 3.999 3.586 6.549 0 2.157-.955 3.963-2.613 4.47zm-.973 17.828c-.421 0-.763.386-.763.862 0 .477.341.863.763.863.421 0 .763-.386.762-.863 0-.476-.341-.862-.762-.862zm18.891-10.367v12.543c0 .699-.553 1.268-1.235 1.268-.681 0-1.235-.569-1.235-1.268v-12.894l1.264.944 1.206-.593zm-1.934 12.288c0 .396.312.717.698.717.386 0 .7-.321.7-.717 0-.397-.313-.718-.7-.718-.386 0-.698.321-.698.718z"/></svg>