<svg baseProfile="full" xmlns="http://www.w3.org/2000/svg" height="25" width="27"><path fill="rgb( 48, 171, 223 )" d="M1.486 12.755l12.014-10.686 12.015 10.686c.158.141.353.21.549.21.234 0 .466-.101.632-.295.304-.36.265-.901-.082-1.214l-12.564-11.175c-.315-.281-.783-.281-1.098 0l-4.477 3.981v-1.612c0-.949-.751-1.72-1.676-1.72-.924 0-1.675.771-1.675 1.72v4.592l-4.737 4.214c-.348.311-.387.854-.083 1.214.305.357.832.396 1.182.085zm8.664 3.649h6.701v8.596h5.026c.922 0 1.675-.77 1.675-1.719v-8.425c0-.517-.226-1.004-.615-1.33l-8.376-7.048c-.307-.259-.684-.39-1.061-.39-.377 0-.754.131-1.062.39l-8.375 7.048c-.39.326-.614.813-.614 1.33v8.425c0 .949.751 1.719 1.675 1.719h5.026v-8.596z"/></svg>