<svg xmlns="http://www.w3.org/2000/svg" preserveAspectRatio="xMidYMid" width="17" height="21" viewBox="0 0 17 21"><defs><style>.cls-2 { fill: #ff6600; }</style></defs><path d="M9.805 18.326v.944c.003.521-.133.961-.606.692l-3.285-1.876c-.473-.27-.471-.706.002-.974l3.256-1.838c.474-.269.632.172.633.693v1.072c3.018-.759 5.751-3.895 5.751-7.075 0-2.151-1.02-4.068-2.615-5.319-.885-.654-.1-1.952.898-1.082 1.819 1.563 2.967 3.851 2.967 6.401 0 4.128-3.006 7.571-7.001 8.362zm.962-15.361l-3.217 1.847c-.469.27-.625-.174-.626-.697v-1.077c-2.982.763-5.683 3.914-5.683 7.108 0 2.16 1.009 4.087 2.584 5.344.875.657.099 1.96-.886 1.087-1.798-1.571-2.933-3.869-2.933-6.431 0-4.147 2.971-7.606 6.918-8.401v-.948c-.003-.524.132-.966.599-.695l3.246 1.885c.467.271.466.708-.002.978z" id="path-1" class="cls-2" fill-rule="evenodd"/></svg>