<svg xmlns="http://www.w3.org/2000/svg" preserveAspectRatio="xMidYMid" width="19" height="19" viewBox="0 0 19 19"><defs><style>.cls-2 { fill: #ff6600; opacity: 0.5; }</style></defs><path d="M19 12.734v-5.396c0-1.99-.73-3.728-2.168-5.169-1.441-1.439-3.18-2.169-5.169-2.169h-4.326c-1.99 0-3.729.728-5.166 2.164-1.44 1.436-2.171 3.177-2.171 5.174v4.325c0 1.989.731 3.729 2.171 5.168 1.438 1.44 3.18 2.169 5.177 2.169h6.74c.334 0 .607-.272.607-.606v-.546c0-.334-.273-.606-.607-.606h-6.74c-1.545 0-2.877-.559-3.96-1.663-1.081-1.102-1.63-2.419-1.63-3.916v-4.325c0-1.545.56-2.876 1.663-3.956 1.102-1.078 2.419-1.624 3.917-1.624h4.325c1.538 0 2.867.559 3.95 1.662 1.081 1.103 1.629 2.421 1.629 3.917v4.325c0 .821-.453 1.274-1.274 1.274h-2.162c-.822 0-1.274-.453-1.274-1.274v-6.75c0-.334-.272-.606-.606-.606h-3.498c-1.111 0-2.086.407-2.898 1.209-.812.802-1.224 1.783-1.224 2.913v2.143c0 1.144.412 2.128 1.224 2.923.811.796 1.657 1.201 2.515 1.201.728 0 1.287-.167 1.66-.496.219-.192.388-.445.502-.749.085-.229.166-.446.366-.446.206 0 .281.22.36.453.285.833.874 1.238 1.801 1.238h4.306c.547 0 1.001-.191 1.386-.582.387-.393.574-.844.574-1.379zm-8.226-2.163c0 .338-.065.657-.191.946-.199.454-.769 1.027-1.219 1.226-.286.128-.601.193-.936.193-.342 0-.663-.065-.953-.193-.451-.2-1.021-.772-1.22-1.225-.127-.29-.192-.608-.192-.946v-2.143c0-.646.235-1.207.698-1.669.461-.461 1.021-.695 1.667-.695h1.335c.557 0 1.011.453 1.011 1.01v3.496z" id="path-1" class="cls-2" fill-rule="evenodd"/></svg>