<svg baseProfile="full" xmlns="http://www.w3.org/2000/svg" height="26" width="24"><path fill="rgb( 255, 178, 127 )" d="M13.987 0l1.62 4.209 3.053.991-3.054.991-1.619 4.209-1.621-4.209-3.052-.991 3.052-.991 1.621-4.209zm1.971 19.189c-.499 3.84-3.867 6.811-7.948 6.811-4.423 0-8.01-3.494-8.01-7.8 0-3.595 2.497-6.621 5.894-7.524.674-.181 1.384-.276 2.116-.276.33 0 .655.02.973.057-.614.918-2.306 3.315-2.306 4.493 0 3.23.294 6.184 6.007 5.85.679-.04 2.665-1.409 3.274-1.611zm3.369-8.789l1.621 4.21 3.052.99-3.052.99-1.621 4.21-1.62-4.21-3.052-.99 3.052-.99 1.62-4.21z"/></svg>