<svg baseProfile="full" xmlns="http://www.w3.org/2000/svg" height="19" width="18"><path fill="rgb( 217, 244, 255 )" d="M.667 5.654c-.667.648-.319 1.081.573.825 2.117-.608 5.768-1.457 7.43-.659 0 0-4.86 3.866-4.128 11.511.089.927.782 1.669 1.449 1.669.668 0 1.111-.751 1.109-1.683-.004-2.107.351-6.032 2.48-10.864 0 0 1.584 2.089 2.06 4.368.191.912.545 1.04.792.141.27-.987.355-2.347-.435-3.772 0 0 3.024 1.645 4.993 3.766.633.681 1.01.567.763-.331-.519-1.886-2.05-4.813-6.562-5.684 0 0 1.737-.85 3.844-.766.928.037 1.233-.4.407-.825-1.005-.518-2.722-.866-5.512-.061 0 0-1.344-3.289-5.686-3.154-.928.029-.968.486-.134.894 1.44.704 3.431 1.84 3.824 2.893.001 0-4.475-.98-7.267 1.732z"/></svg>