<svg baseProfile="full" xmlns="http://www.w3.org/2000/svg" height="24" width="21"><path fill="rgb( 255, 102, 0 )" d="M19.671 18.27h-.569v4.789c0 .519-.418.941-.93.941h-15.344c-.513 0-.93-.422-.93-.941v-4.789h-.569c-.734 0-1.329-.603-1.329-1.345v-6.995c0-.743.595-1.346 1.329-1.346h.569v-7.643c0-.519.417-.941.93-.941h11.236l.107.013.025.009.092.039.03.018.093.079.003.003 4.572 5.286c.075.086.11.194.111.305l.005.052v2.781h.569c.734 0 1.329.602 1.329 1.345v6.995c0 .743-.595 1.345-1.329 1.345zm-16.843 4.534h15.344v-4.534h-15.344v4.534zm11.416-9.339c0-1.241-.454-2.106-1.175-2.648-.669-.511-1.525-.751-2.843-.751-.793 0-1.545.052-2.122.146v6.902c.392.052.969.105 1.782.105 1.36 0 2.472-.292 3.203-.907.671-.574 1.155-1.502 1.155-2.847zm-12.126-3.253v6.934h1.555v-2.513c.144.021.33.032.536.032.927 0 1.72-.23 2.256-.741.412-.396.638-.98.638-1.668s-.298-1.272-.741-1.627c-.463-.375-1.154-.563-2.122-.563-.958 0-1.638.063-2.122.146zm16.054-3.985h-4.108c-.256 0-.465-.21-.465-.47v-4.816h-10.771v7.644h15.344v-2.358zm1.347 3.891h-4.244v7.028h1.575v-2.826h2.494v-1.293h-2.494v-1.605h2.669v-1.304zm-13.971 2.179c0 .72-.515 1.147-1.349 1.147-.226 0-.391-.01-.525-.041v-2.075c.113-.031.329-.063.648-.063.783 0 1.226.386 1.226 1.032zm4.678 3.681c-.195 0-.412 0-.546-.031v-4.598c.135-.032.361-.063.711-.063 1.349 0 2.194.771 2.184 2.231 0 1.679-.927 2.472-2.349 2.461z"/></svg>