<svg baseProfile="full" xmlns="http://www.w3.org/2000/svg" height="27" width="27"><path fill="rgb( 255, 102, 0 )" d="M26.298 14.857l-.795.795.484 1.011c.431.903.046 1.985-.85 2.416l-1.709.817v1.892c0 .997-.81 1.808-1.807 1.808h-1.122l-.373 1.062c-.323.915-1.389 1.428-2.307 1.102l-1.787-.628-1.342 1.338c-.338.342-.791.53-1.276.53-.484 0-.938-.188-1.28-.53l-.794-.795-1.011.487c-.873.416-1.995.018-2.412-.854l-.817-1.711h-1.893c-.997 0-1.809-.809-1.809-1.807v-1.124l-1.057-.371c-.455-.162-.821-.492-1.029-.928-.208-.437-.235-.927-.074-1.381l.631-1.787-1.339-1.342c-.34-.339-.53-.793-.53-1.276 0-.487.188-.941.531-1.283l.793-.794-.483-1.012c-.431-.901-.049-1.983.848-2.415l1.711-.816v-1.894c0-.997.812-1.81 1.809-1.81h1.121l.371-1.059c.327-.917 1.395-1.432 2.312-1.1l1.782.628 1.341-1.339c.685-.687 1.877-.684 2.557.001l.789.792 1.015-.486c.876-.418 1.997-.018 2.414.855l.815 1.708h1.894c.994 0 1.808.811 1.808 1.81v1.122l1.056.372c.941.337 1.435 1.373 1.102 2.312l-.628 1.785 1.34 1.34c.702.706.702 1.855 0 2.559zm-3.571-3.389l.993-2.819-2.228-.787v-2.366h-2.984l-1.294-2.706-2.126 1.03-1.674-1.671-2.11 2.111-2.814-.994-.788 2.23h-2.364v2.986l-2.693 1.288 1.02 2.133-1.672 1.673 2.11 2.114-.993 2.814 2.228.789v2.364h2.984l1.292 2.706 2.126-1.029 1.674 1.672 2.111-2.108 2.813.992.789-2.231h2.362v-2.987l2.693-1.288-1.019-2.133 1.675-1.672-2.111-2.111zm-5.36 7.238c-1.613 0-2.895-1.214-2.911-3.221 0-1.908 1.167-3.355 2.991-3.355 1.838 0 2.876 1.35 2.876 3.174 0 2.237-1.413 3.402-2.956 3.402zm.047-5.211c-.756 0-1.085.855-1.085 1.926-.016 1.115.362 1.923 1.085 1.923.706 0 1.051-.724 1.051-1.923 0-1.088-.279-1.926-1.051-1.926zm-7.607 5.245l6.128-11.048h1.347l-6.147 11.048h-1.328zm-.13-4.471c-1.627 0-2.909-1.217-2.909-3.223 0-1.907 1.167-3.354 2.989-3.354 1.841 0 2.877 1.347 2.877 3.172 0 2.237-1.414 3.405-2.957 3.405zm.032-5.213c-.74 0-1.085.854-1.085 1.924 0 1.119.376 1.923 1.1 1.923.707 0 1.052-.724 1.054-1.923 0-1.086-.297-1.924-1.069-1.924z"/></svg>