<svg xmlns="http://www.w3.org/2000/svg" preserveAspectRatio="xMidYMid" width="19" height="18" viewBox="0 0 19 18"><path d="M14.877 13.448c-2.491-.898-3.288-1.656-3.288-3.279 0-.974.761-.656 1.095-2.44.139-.74.81-.012.939-1.701 0-.674-.367-.841-.367-.841s.187-.996.26-1.763c.09-.956-.558-3.424-4.016-3.424s-4.106 2.468-4.016 3.424c.073.767.26 1.763.26 1.763s-.367.167-.367.841c.128 1.689.8.961.939 1.701.334 1.784 1.095 1.466 1.095 2.44 0 1.623-.796 2.381-3.288 3.279-2.499.901-4.123 1.82-4.123 2.447v2.105h19v-2.105c0-.627-1.624-1.546-4.123-2.447z" class="cls-2" fill-rule="evenodd"/></svg>