<svg baseProfile="full" xmlns="http://www.w3.org/2000/svg" height="21" width="21"><path fill="rgb( 0, 0, 0 )" d="M8.498 12.539c1.795 1.785 3.873 3.491 4.688 2.667 1.168-1.178 1.887-2.204 4.478-.133 2.591 2.072.612 3.467-.518 4.609-1.306 1.318-6.195.092-11.04-4.727-4.846-4.82-6.106-9.71-4.8-11.028 1.132-1.143 2.508-3.136 4.594-.554 2.087 2.581 1.069 3.309-.099 4.488-.815.823.902 2.892 2.697 4.678zm2.603-8.518s-.542-.085-.921.295c-.39.391-.407 1.065.004 1.477.243.243.586.295.586.295.668.126 1.674.338 2.746 1.412 1.071 1.073 1.283 2.082 1.408 2.752 0 0 .052.343.295.587.411.411 1.084.395 1.474.004.379-.38.294-.923.294-.923-.212-1.356-.868-2.772-1.994-3.901-1.126-1.128-2.539-1.785-3.892-1.998zm5.078.809c1.964 1.969 2.801 4.202 2.529 6.012 0 0-.095.573.278.947.421.421 1.087.397 1.481.003.253-.253.308-.666.308-.666.225-1.564-.058-4.71-3.118-7.776s-6.199-3.35-7.76-3.125c0 0-.411.055-.664.309-.394.395-.418 1.062.003 1.484.373.374.945.279.945.279 1.806-.274 4.035.565 5.998 2.533z"/></svg>