<svg baseProfile="full" xmlns="http://www.w3.org/2000/svg" height="32" width="28"><path fill="rgb( 255, 102, 0 )" d="M26.459 21.051v1.665l1.115 3.404h-1.27l-1.941-2.849-.171.013h-7.494l2.707 7.898-2.135-.184-1.636-2.337-1.633-2.333-2.132-3.044h-5.921c-.734 0-1.33-.664-1.33-1.484s.596-1.484 1.33-1.484h6.179l1.878-2.586 1.699-2.339 1.565-2.153 2.408-.184-2.8 7.263h7.3149999999999995l.153.009 1.852-2.603h1.453l-1.191 3.328zm-4.526-10.563h-5.920999999999999l-2.132 3.044-1.632 2.333-1.637 2.336-2.135.185 2.707-7.898h-7.492999999999999l-.172-.013-1.941 2.849h-1.269l1.114-3.404v-1.6650000000000003l-1.191-3.328h1.453l1.852 2.603.153-.009h7.3149999999999995l-2.8-7.263 2.408.184 1.565 2.153 1.7 2.339 1.877 2.586h6.179c.735 0 1.33.664 1.33 1.484s-.595 1.484-1.33 1.484z"/></svg>