<svg baseProfile="full" xmlns="http://www.w3.org/2000/svg" height="12" width="16"><path fill="rgb( 255, 102, 0 )" d="M15.93 4.659l-.006.007-1.561 1.576c-.068.068-.18.068-.247-.001-3.374-3.405-8.864-3.407-12.238 0-.068.069-.179.069-.248 0l-1.56-1.575c-.07-.071-.07-.183-.002-.252 4.358-4.399 11.442-4.414 15.819-.038l.045.031c.068.069.066.183-.002.252zm-2.674 2.372l.045.032c.068.068.068.181-.001.251l-.006.006-1.517 1.532c-.068.069-.18.069-.247 0-1.949-1.967-5.119-1.966-7.066 0-.069.069-.18.069-.248 0l-1.516-1.532c-.069-.069-.069-.182-.001-.25 2.907-2.936 7.632-2.949 10.557-.039zm-3.115 2.592c.072.073.182.107-.036.328l-2.116 2.049-2.137-2.115c-.129-.129-.09-.17-.02-.237 1.362-1.327 3.066-1.189 4.309-.025z"/></svg>