<svg baseProfile="full" xmlns="http://www.w3.org/2000/svg" height="12" width="7"><path fill="rgb( 255, 102, 0 )" d="M6.792 11.803c-.137.129-.299.194-.485.196l.009.001h-.018l.009-.001c-.186-.002-.348-.067-.485-.196-.138-.131-.208-.286-.208-.466v-5.371h-.796l-.123-.049-.053-.116v-4.144c0-.455.172-.846.516-1.17.343-.325.756-.487 1.239-.487h.252c.095 0 .177.033.247.098.069.066.104.144.104.233v11.006c0 .18-.07.335-.208.466zm-4.273-7.491v6.889c0 .18-.069.335-.208.466-.137.129-.298.194-.484.196l.008.001h-.018l.009-.001c-.186-.002-.348-.067-.484-.196-.139-.131-.208-.286-.208-.466v-6.889c-.209-.069-1.134-.727-1.134-.938v-2.771c0-.089.035-.167.104-.233.07-.065.152-.098.247-.098s.177.033.247.098c.069.066.104.144.104.233v2.155c0 .09.034.167.104.233.069.066.151.098.247.098.095 0 .177-.032.246-.098.07-.066.105-.143.105-.233v-2.155c0-.089.034-.167.104-.233.069-.065.151-.098.246-.098s.178.033.247.098c.069.066.104.144.104.233v2.155c0 .09.035.167.104.233.07.066.152.098.247.098s.177-.032.247-.098c.069-.066.104-.143.104-.233v-2.155c0-.089.035-.167.104-.233.07-.065.152-.098.247-.098s.177.033.247.098c.069.066.104.144.104.233v2.771c0 .211-.781.869-.99.938z"/></svg>