<svg baseProfile="full" xmlns="http://www.w3.org/2000/svg" height="12" width="11"><path fill="rgb( 255, 102, 0 )" d="M5.5 5.197c.375 0 .709.109 1.004.328.294.219.495.496.602.832l.134.593c.071.311.129.534.174.669.044.134.142.298.294.492.152.193.352.349.602.466.446.135.763.316.95.543.188.227.281.576.281 1.047 0 .403-.156.778-.468 1.122-.312.345-.691.543-1.137.593-.91.118-1.722-.017-2.436-.403-.714.386-1.525.521-2.435.403-.447-.05-.826-.248-1.138-.593-.312-.344-.468-.719-.468-1.122 0-.454.098-.799.294-1.035.196-.235.518-.428.964-.58.267-.118.477-.273.629-.466.151-.194.249-.37.294-.53.044-.16.094-.375.147-.644l.134-.605c.089-.32.281-.584.575-.795.295-.21.629-.315 1.004-.315zm5.032-.58c-.125-.101-.393-.009-.803.277-.411.286-.723.555-.937.807-.232.253-.348.551-.348.896s.116.643.348.896c.232.252.517.378.856.378.232 0 .451-.076.656-.227.205-.151.353-.345.442-.58.178-.404.254-.858.227-1.363-.026-.504-.174-.866-.441-1.084zm-10.064 0c-.267.218-.414.58-.441 1.084-.027.505.049.959.227 1.363.089.235.237.429.442.58.205.151.424.227.656.227.339 0 .624-.126.856-.378.232-.253.348-.551.348-.896s-.116-.643-.348-.896c-.214-.252-.526-.521-.937-.807-.41-.286-.678-.378-.803-.277zm6.504-4.567c.946.152 1.579.707 1.9 1.665.286.875.205 1.623-.241 2.246-.321.471-.758.656-1.311.555-.321-.051-.589-.198-.803-.442-.214-.244-.339-.525-.375-.845-.035-.252-.053-.53-.053-.832 0-.303.013-.656.04-1.06.027-.404.111-.731.254-.984.143-.252.339-.353.589-.303zm-2.944 0c.25-.05.446.051.589.303.143.253.227.58.254.984.027.404.04.757.04 1.06 0 .302-.018.58-.053.832-.036.32-.161.601-.375.845s-.482.391-.803.442c-.731.118-1.24-.21-1.525-.984-.304-.807-.232-1.598.214-2.372.374-.622.927-.992 1.659-1.11z"/></svg>