<svg baseProfile="full" xmlns="http://www.w3.org/2000/svg" height="12" width="12"><path fill="rgb( 255, 102, 0 )" d="M10.667 12h-9.334c-.733 0-1.333-.6-1.333-1.333v-9.334c0-.733.6-1.333 1.333-1.333h9.334c.733 0 1.333.6 1.333 1.333v9.334c0 .733-.6 1.333-1.333 1.333zm-2.6-8.733c-.4-.4-.867-.6-1.867-.6h-2.867v6.666h1.2v-2.4659999999999997h1.667c1 0 1.467-.2 1.867-.534.4-.333.6-.866.6-1.533 0-.6-.134-1.133-.6-1.533zm-1.934 2.733h-1.6v-2.4h1.534c.466 0 .8.133 1 .4.2.267.333.467.333.8 0 .4-.133.6-.333.867-.2.2-.467.333-.934.333z"/></svg>