<svg baseProfile="full" xmlns="http://www.w3.org/2000/svg" height="10" width="18"><path fill="rgb( 255, 102, 0 )" d="M17.438 9.352c-.323.258-.81.648-1.688.648-.879 0-1.366-.39-1.688-.648-.236-.189-.316-.253-.563-.253-.246 0-.325.063-.562.253-.322.258-.809.648-1.687.648-.879 0-1.366-.39-1.688-.648-.236-.19-.316-.253-.562-.253-.247 0-.326.063-.562.253-.323.258-.81.648-1.688.648-.879 0-1.366-.39-1.688-.648-.236-.19-.316-.253-.562-.253-.246 0-.326.063-.562.253-.322.258-.809.648-1.688.648-.879 0-1.366-.39-1.688-.648-.236-.19-.316-.253-.562-.253v-1.803c.879 0 1.366.39 1.688.649.236.189.316.252.562.252.246 0 .326-.063.562-.252.322-.259.809-.649 1.688-.649.878 0 1.365.39 1.688.649.236.189.315.252.562.252.246 0 .326-.063.562-.252.322-.259.809-.649 1.688-.649.878 0 1.365.39 1.687.649.237.189.316.252.563.252.246 0 .325-.063.562-.252.322-.259.809-.649 1.687-.649.879 0 1.366.39 1.688.649.237.189.316.252.563.252.246 0 .326-.063.562-.252.322-.259.809-.649 1.688-.649v1.803c-.246 0-.326.063-.562.253zm-3.448-2.96c-1.617 0-2.928-1.311-2.928-2.929 0-1.618 1.311-2.93 2.928-2.93s2.928 1.312 2.928 2.93-1.311 2.929-2.928 2.929zm-2.133.841c-.236.189-.316.253-.562.253-.246 0-.326-.063-.562-.253-.322-.258-.809-.648-1.688-.648-.878 0-1.365.39-1.688.648-.236.189-.315.253-.562.253-.246 0-.326-.063-.562-.253-.322-.258-.809-.648-1.687-.648-.195 0-.37.02-.528.052l3.666-2.627-1.85-1.382-4.161.818.503-2.31 4.002-1.136 3.502 2.616 2.563 4.335c-.152.096-.278.196-.386.282z"/></svg>