<svg baseProfile="full" xmlns="http://www.w3.org/2000/svg" height="13" width="13"><path fill="rgb( 255, 102, 0 )" d="M12.146 2.625c.533-.715.852-1.456.854-1.986-.001-.172-.035-.306-.101-.406l-.059-.075-.069-.054c-.105-.07-.239-.104-.411-.104-.528.001-1.27.32-1.984.855-.578.432-1.155 1.04-1.955 1.883l-.429.451-1.548-.464.004-.005c.065-.065.101-.154.1-.242.001-.093-.036-.182-.101-.247l-.279-.28c-.065-.065-.154-.102-.246-.102-.094 0-.181.036-.246.102l-.418.418-.221-.066c.047-.061.074-.136.073-.211.001-.094-.036-.182-.101-.247l-.281-.281c-.064-.064-.153-.101-.246-.101s-.18.036-.244.102l-.384.384-1.575-.472-.112-.016c-.112.001-.216.043-.291.118l-.554.554c-.063.062-.098.148-.097.228-.002.119.064.228.169.285l3.31 1.85.081.061.944.943c-.883.931-1.67 1.832-2.283 2.616l-.164.214-2.562-.233-.044-.003c-.117.003-.232.049-.317.132l-.258.258c-.064.062-.1.146-.099.228-.002.124.073.239.186.289l1.802.856.069.05.15.148c-.047.132-.071.246-.072.347-.001.134.043.249.125.332l.007.005.002.002c.085.082.195.124.331.124.098-.002.211-.025.343-.072l.152.152.048.068.854 1.798c.052.115.164.189.287.189h.001c.085 0 .166-.034.228-.096l.264-.265c.079-.083.125-.197.127-.317l-.001-.032-.234-2.571.215-.164c.784-.614 1.685-1.401 2.614-2.283l.944.946.062.081 1.846 3.305c.056.107.165.173.285.173.086 0 .167-.034.23-.098l.557-.557c.073-.075.114-.178.115-.29l-.016-.109-.471-1.575.384-.385c.064-.064.101-.153.101-.245s-.036-.178-.101-.244l-.281-.281c-.065-.065-.154-.102-.245-.102-.078 0-.154.026-.213.073l-.066-.221.419-.419c.064-.064.101-.153.101-.245 0-.093-.036-.18-.101-.245l-.28-.28c-.065-.065-.155-.102-.247-.102s-.182.037-.245.102l-.003.002-.464-1.548.458-.435c.839-.797 1.446-1.372 1.877-1.948z"/></svg>