<svg xmlns="http://www.w3.org/2000/svg" preserveAspectRatio="xMidYMid" width="19" height="18" viewBox="0 0 19 18"><defs><style>.cls-2 { fill: #ff6600; opacity: 0.5; }</style></defs><path d="M6.482 5.78l-5.965.658c-.215.026-.406.17-.477.387-.071.218 0 .444.159.588 1.773 1.612 4.437 4.025 4.437 4.025-.002 0-.731 3.512-1.215 5.855-.041.211.035.436.221.571.185.134.423.136.61.03 2.087-1.181 5.215-2.958 5.215-2.958l5.213 2.96c.19.104.429.102.613-.032.186-.135.263-.36.221-.57-.484-2.344-1.212-5.856-1.212-5.856s2.664-2.413 4.437-4.022c.159-.148.23-.374.159-.591-.071-.216-.261-.36-.476-.384-2.387-.267-5.967-.661-5.967-.661l-2.471-5.449c-.093-.194-.288-.331-.517-.331-.229 0-.424.138-.513.331-.99 2.179-2.472 5.449-2.472 5.449z" id="path-1" class="cls-2" fill-rule="evenodd"/></svg>