<svg xmlns="http://www.w3.org/2000/svg" viewBox="0 0 42.999 42" enable-background="new 0 0 42.999 42"><path fill="#f60" d="M.675 22.409c.412.188.896.12 1.239-.173.021-.017 2.143-1.772 4.62-1.772 1.409 0 2.704.576 3.847 1.712.219.218.536.37.827.337.31-.002.606-.127.823-.348.019-.019 1.986-1.957 4.478-1.957 1.329 0 2.615.56 3.832 1.655v13.743c0 3.526 2.888 6.396 6.437 6.396 3.551 0 6.438-2.869 6.438-6.396 0-.637-.519-1.151-1.159-1.151s-1.159.515-1.159 1.151c0 2.257-1.849 4.093-4.12 4.093s-4.12-1.836-4.12-4.093v-13.743c1.217-1.094 2.504-1.655 3.832-1.655 2.505 0 4.461 1.94 4.478 1.957.216.22.512.346.822.348.323.015.608-.118.827-.337 1.144-1.136 2.438-1.712 3.847-1.712 2.492 0 4.602 1.757 4.623 1.774.214.182.481.277.753.277.164 0 .329-.035.484-.105.411-.189.675-.597.675-1.047.001-11.78-9.643-21.363-21.499-21.363-11.856 0-21.5 9.583-21.5 21.363 0 .449.263.859.675 1.046zm15.391-19.322c-3.325 3.075-5.653 8.926-6.08 15.941-1.071-.573-2.225-.867-3.451-.867-1.587 0-3.015.496-4.093 1.031.878-7.67 6.36-13.969 13.624-16.105zm24.493 16.105c-1.078-.534-2.505-1.031-4.093-1.031-1.227 0-2.38.294-3.451.867-.427-7.015-2.756-12.866-6.08-15.941 7.262 2.136 12.745 8.434 13.624 16.105zm-14.068-1.286c-1.338 0-2.619.365-3.832 1.087v-15.782c4.127 1.07 7.502 7.747 8.035 15.904-1.072-.622-2.523-1.209-4.203-1.209zm-14.185 1.209c.533-8.156 3.908-14.833 8.035-15.904v15.782c-1.213-.722-2.494-1.087-3.832-1.087-1.679 0-3.13.587-4.203 1.209z"/></svg>