<?xml version="1.0" encoding="utf-8"?>
<!-- Generator: Adobe Illustrator 18.1.0, SVG Export Plug-In . SVG Version: 6.00 Build 0)  -->
<!DOCTYPE svg PUBLIC "-//W3C//DTD SVG 1.1//EN" "http://www.w3.org/Graphics/SVG/1.1/DTD/svg11.dtd">
<svg version="1.1" id="Layer_1" xmlns="http://www.w3.org/2000/svg" xmlns:xlink="http://www.w3.org/1999/xlink" x="0px" y="0px"
	 viewBox="0 0 43 42" enable-background="new 0 0 43 42" xml:space="preserve">
<path fill="#FF6600" d="M0.7,22.4c0.4,0.2,0.9,0.1,1.2-0.2c0,0,2.1-1.8,4.6-1.8c1.4,0,2.7,0.6,3.8,1.7c0.2,0.2,0.5,0.4,0.8,0.3
	c0.3,0,0.6-0.1,0.8-0.3c0,0,2-2,4.5-2c1.3,0,2.6,0.6,3.8,1.7v13.7c0,3.5,2.9,6.4,6.4,6.4c3.6,0,6.4-2.9,6.4-6.4
	c0-0.6-0.5-1.2-1.2-1.2c-0.6,0-1.2,0.5-1.2,1.2c0,2.3-1.8,4.1-4.1,4.1s-4.1-1.8-4.1-4.1V21.9c1.2-1.1,2.5-1.7,3.8-1.7
	c2.5,0,4.5,1.9,4.5,2c0.2,0.2,0.5,0.3,0.8,0.3c0.3,0,0.6-0.1,0.8-0.3c1.1-1.1,2.4-1.7,3.8-1.7c2.5,0,4.6,1.8,4.6,1.8
	c0.2,0.2,0.5,0.3,0.8,0.3c0.2,0,0.3,0,0.5-0.1c0.4-0.2,0.7-0.6,0.7-1C43,9.6,33.4,0,21.5,0C9.6,0,0,9.6,0,21.4
	C0,21.8,0.3,22.2,0.7,22.4z M16.1,3.1C12.7,6.2,10.4,12,10,19c-1.1-0.6-2.2-0.9-3.5-0.9c-1.6,0-3,0.5-4.1,1
	C3.3,11.5,8.8,5.2,16.1,3.1z M40.6,19.2c-1.1-0.5-2.5-1-4.1-1c-1.2,0-2.4,0.3-3.5,0.9c-0.4-7-2.8-12.9-6.1-15.9
	C34.2,5.2,39.7,11.5,40.6,19.2z M26.5,17.9c-1.3,0-2.6,0.4-3.8,1.1V5.6V3.2c4.1,1.1,7.5,7.7,8,15.9C29.6,18.5,28.2,17.9,26.5,17.9z
	 M12.3,19.1c0.5-8.2,3.9-14.8,8-15.9v2.4V19c-1.2-0.7-2.5-1.1-3.8-1.1C14.8,17.9,13.4,18.5,12.3,19.1z"/>
</svg>
