<?xml version="1.0" encoding="utf-8"?>
<!-- Generator: Adobe Illustrator 18.1.0, SVG Export Plug-In . SVG Version: 6.00 Build 0)  -->
<!DOCTYPE svg PUBLIC "-//W3C//DTD SVG 1.1//EN" "http://www.w3.org/Graphics/SVG/1.1/DTD/svg11.dtd">
<svg version="1.1" id="Слой_1" xmlns="http://www.w3.org/2000/svg" xmlns:xlink="http://www.w3.org/1999/xlink" x="0px" y="0px"
	 viewBox="0 0 42.999 42" enable-background="new 0 0 42.999 42" xml:space="preserve">
<g>
	<path fill="#FF6600" d="M0.675,22.409c0.412,0.188,0.896,0.12,1.239-0.173c0.021-0.017,2.143-1.772,4.62-1.772
		c1.409,0,2.704,0.576,3.847,1.712c0.219,0.218,0.536,0.37,0.827,0.337c0.31-0.002,0.606-0.127,0.823-0.348
		c0.019-0.019,1.986-1.957,4.478-1.957c1.329,0,2.615,0.56,3.832,1.655v13.743c0,3.526,2.888,6.396,6.437,6.396
		c3.551,0,6.438-2.869,6.438-6.396c0-0.637-0.519-1.151-1.159-1.151c-0.64,0-1.159,0.515-1.159,1.151
		c0,2.257-1.849,4.093-4.12,4.093s-4.12-1.836-4.12-4.093V21.863c1.217-1.094,2.504-1.655,3.832-1.655
		c2.505,0,4.461,1.94,4.478,1.957c0.216,0.22,0.512,0.346,0.822,0.348c0.323,0.015,0.608-0.118,0.827-0.337
		c1.144-1.136,2.438-1.712,3.847-1.712c2.492,0,4.602,1.757,4.623,1.774c0.214,0.182,0.481,0.277,0.753,0.277
		c0.164,0,0.329-0.035,0.484-0.105c0.411-0.189,0.675-0.597,0.675-1.047C43,9.583,33.356,0,21.5,0C9.644,0,0,9.583,0,21.363
		C0,21.812,0.263,22.222,0.675,22.409z M16.066,3.087c-3.325,3.075-5.653,8.926-6.08,15.941c-1.071-0.573-2.225-0.867-3.451-0.867
		c-1.587,0-3.015,0.496-4.093,1.031C3.32,11.522,8.802,5.223,16.066,3.087z M40.559,19.192c-1.078-0.534-2.505-1.031-4.093-1.031
		c-1.227,0-2.38,0.294-3.451,0.867c-0.427-7.015-2.756-12.866-6.08-15.941C34.197,5.223,39.68,11.521,40.559,19.192z M26.491,17.906
		c-1.338,0-2.619,0.365-3.832,1.087V5.643V3.211c4.127,1.07,7.502,7.747,8.035,15.904C29.622,18.493,28.171,17.906,26.491,17.906z
		 M12.306,19.115c0.533-8.156,3.908-14.833,8.035-15.904v2.432v13.35c-1.213-0.722-2.494-1.087-3.832-1.087
		C14.83,17.906,13.379,18.493,12.306,19.115z"/>
</g>
</svg>
