<?xml version="1.0" encoding="utf-8"?><!DOCTYPE svg PUBLIC "-//W3C//DTD SVG 1.1//EN" "http://www.w3.org/Graphics/SVG/1.1/DTD/svg11.dtd"><svg version="1.1" baseProfile="full" xmlns="http://www.w3.org/2000/svg" xmlns:xlink="http://www.w3.org/1999/xlink" xmlns:ev="http://www.w3.org/2001/xml-events"   height="38px"   width="40px" ><path stroke="rgb( 255, 102, 0 )" stroke-width="2px" stroke-linecap="butt" stroke-linejoin="miter" fill="none" d="M31.3200000000001,28.39 C26.075,26.493 24.398,24.893 24.398,21.468 C24.398,19.412 26,20.083 26.703,16.317 C26.995,14.755 28.409,16.291 28.6799999999999,12.725 C28.6799999999999,11.303 27.908,10.95 27.908,10.95 C27.908,10.95 28.3,8.84699999999998 28.454,7.22800000000001 C28.644,5.21100000000001 27.28,0 20,0 C12.721,0 11.355,5.21100000000001 11.546,7.22800000000001 C11.7,8.84699999999998 12.092,10.95 12.092,10.95 C12.092,10.95 11.3200000000001,11.303 11.3200000000001,12.725 C11.59,16.291 13.005,14.755 13.297,16.317 C14,20.083 15.601,19.412 15.601,21.468 C15.601,24.893 13.926,26.493 8.67999999999995,28.39 C3.41800000000001,30.293 0,32.232 0,33.555 C0,34.877 0,38 0,38 C0,38 20,38 20,38 C20,38 40,38 40,38 C40,38 40,34.877 40,33.555 C40,32.232 36.582,30.293 31.3200000000001,28.39 Z "/></svg>